<svg width="357" height="70" viewBox="0 0 357 70" fill="none" xmlns="http://www.w3.org/2000/svg">
<g clip-path="url(#clip0_2155_13)">
<path d="M27.072 58.72C19.152 58.72 13.008 56.344 8.64 51.592C4.32 46.792 2.16 40.384 2.16 32.368C2.16 24.352 4.32 17.968 8.64 13.216C13.008 8.416 19.152 6.016 27.072 6.016C33.936 6.016 39.48 7.84 43.704 11.488C47.976 15.088 50.112 19.6 50.112 25.024H42.624C42.144 21.28 40.584 18.28 37.944 16.024C35.304 13.72 31.68 12.568 27.072 12.568C21.552 12.568 17.352 14.272 14.472 17.68C11.592 21.088 10.152 25.984 10.152 32.368C10.152 38.752 11.592 43.648 14.472 47.056C17.352 50.464 21.552 52.168 27.072 52.168C31.68 52.168 35.304 51.04 37.944 48.784C40.584 46.48 42.144 43.312 42.624 39.28H50.112C50.112 44.848 48 49.48 43.776 53.176C39.6 56.872 34.032 58.72 27.072 58.72ZM62.2502 58H54.6182V20.848H61.8902V29.416C62.8502 26.2 64.1702 23.896 65.8502 22.504C67.5782 21.112 69.8102 20.416 72.5462 20.416C73.5542 20.416 74.6822 20.56 75.9302 20.848V27.544L72.2582 27.4C69.1862 27.4 66.7382 28.552 64.9142 30.856C63.1382 33.112 62.2502 36.28 62.2502 40.36V58ZM95.0642 58.72C89.2082 58.72 84.6722 57.016 81.4562 53.608C78.2882 50.152 76.7042 45.424 76.7042 39.424C76.7042 33.568 78.2402 28.888 81.3122 25.384C84.4322 21.88 88.8722 20.128 94.6322 20.128C100.344 20.128 104.76 21.856 107.88 25.312C111 28.768 112.56 33.256 112.56 38.776C112.56 39.208 112.512 39.904 112.416 40.864H84.3362C84.4322 45.136 85.4162 48.304 87.2882 50.368C89.2082 52.432 91.8002 53.464 95.0642 53.464C97.6562 53.464 99.7682 52.84 101.4 51.592C103.08 50.344 104.208 48.64 104.784 46.48H111.768C110.904 50.368 109.08 53.392 106.296 55.552C103.512 57.664 99.7682 58.72 95.0642 58.72ZM101.688 28.048C99.9122 26.272 97.5602 25.384 94.6322 25.384C91.7042 25.384 89.3522 26.272 87.5762 28.048C85.8002 29.776 84.7202 32.368 84.3362 35.824H104.928C104.544 32.368 103.464 29.776 101.688 28.048ZM128.949 58.72C124.677 58.72 121.389 57.736 119.085 55.768C116.781 53.752 115.629 50.992 115.629 47.488C115.629 41.056 119.829 37.48 128.229 36.76L135.429 36.184C137.589 35.992 139.077 35.608 139.893 35.032C140.709 34.456 141.117 33.568 141.117 32.368C141.117 27.856 138.501 25.6 133.269 25.6C128.181 25.6 125.469 27.856 125.133 32.368H117.645C117.645 24.208 122.829 20.128 133.197 20.128C138.477 20.128 142.389 21.208 144.933 23.368C147.477 25.48 148.749 28.48 148.749 32.368V48.496C148.749 53.536 149.133 56.704 149.901 58H143.061C142.005 56.656 141.477 54.52 141.477 51.592C139.461 56.344 135.285 58.72 128.949 58.72ZM131.037 53.464C134.205 53.464 136.677 52.408 138.453 50.296C140.229 48.136 141.117 45.448 141.117 42.232V39.064C140.349 40.024 138.453 40.624 135.429 40.864L130.677 41.296C125.733 41.68 123.261 43.576 123.261 46.984C123.261 49 123.885 50.584 125.133 51.736C126.429 52.888 128.397 53.464 131.037 53.464ZM167.704 58.36C163.768 58.36 161.032 57.664 159.496 56.272C157.96 54.832 157.192 52.24 157.192 48.496V26.32H151.144V20.848H157.192V9.616H164.824V20.848H173.392V26.32H164.824V48.712C164.824 50.296 165.16 51.4 165.832 52.024C166.504 52.6 167.704 52.888 169.432 52.888L173.392 52.816V58C170.848 58.24 168.952 58.36 167.704 58.36ZM192.642 58.72C186.786 58.72 182.25 57.016 179.034 53.608C175.866 50.152 174.282 45.424 174.282 39.424C174.282 33.568 175.818 28.888 178.89 25.384C182.01 21.88 186.45 20.128 192.21 20.128C197.922 20.128 202.338 21.856 205.458 25.312C208.578 28.768 210.138 33.256 210.138 38.776C210.138 39.208 210.09 39.904 209.994 40.864H181.914C182.01 45.136 182.994 48.304 184.866 50.368C186.786 52.432 189.378 53.464 192.642 53.464C195.234 53.464 197.346 52.84 198.978 51.592C200.658 50.344 201.786 48.64 202.362 46.48H209.346C208.482 50.368 206.658 53.392 203.874 55.552C201.09 57.664 197.346 58.72 192.642 58.72ZM199.266 28.048C197.49 26.272 195.138 25.384 192.21 25.384C189.282 25.384 186.93 26.272 185.154 28.048C183.378 29.776 182.298 32.368 181.914 35.824H202.506C202.122 32.368 201.042 29.776 199.266 28.048ZM246.327 58H238.695V34.816C238.695 31.936 238.119 29.8 236.967 28.408C235.863 27.016 234.015 26.32 231.423 26.32C228.639 26.32 226.407 27.304 224.727 29.272C223.095 31.24 222.279 33.904 222.279 37.264V58H214.647V20.848H221.919V27.328C224.175 22.528 228.111 20.128 233.727 20.128C242.127 20.128 246.327 24.568 246.327 33.448V58ZM259.937 58H252.305V20.848H259.937V58ZM256.121 14.368C254.681 14.368 253.553 14.008 252.737 13.288C251.969 12.52 251.585 11.536 251.585 10.336C251.585 9.136 251.969 8.152 252.737 7.384C253.553 6.616 254.681 6.232 256.121 6.232C257.513 6.232 258.617 6.616 259.433 7.384C260.249 8.152 260.657 9.136 260.657 10.336C260.657 11.536 260.249 12.52 259.433 13.288C258.617 14.008 257.513 14.368 256.121 14.368ZM299.037 58H290.541L281.037 44.68L271.461 58H263.037L276.645 38.704L263.757 20.848H272.181L281.037 33.232L289.821 20.848H298.317L285.429 38.704L299.037 58ZM347.388 51.448C342.492 56.296 335.94 58.72 327.732 58.72C319.524 58.72 312.948 56.296 308.004 51.448C303.108 46.6 300.66 40.24 300.66 32.368C300.66 24.496 303.108 18.136 308.004 13.288C312.948 8.44 319.524 6.016 327.732 6.016C335.94 6.016 342.492 8.44 347.388 13.288C352.332 18.136 354.804 24.496 354.804 32.368C354.804 40.24 352.332 46.6 347.388 51.448ZM311.82 48.064C315.756 52.048 321.06 54.04 327.732 54.04C334.404 54.04 339.684 52.048 343.572 48.064C347.508 44.08 349.476 38.848 349.476 32.368C349.476 25.888 347.508 20.68 343.572 16.744C339.684 12.76 334.404 10.768 327.732 10.768C321.06 10.768 315.756 12.76 311.82 16.744C307.884 20.728 305.916 25.936 305.916 32.368C305.916 38.848 307.884 44.08 311.82 48.064ZM328.092 45.904C324.108 45.904 320.988 44.704 318.732 42.304C316.524 39.904 315.42 36.592 315.42 32.368C315.42 28.192 316.524 24.904 318.732 22.504C320.988 20.056 324.108 18.832 328.092 18.832C331.932 18.832 334.86 19.84 336.876 21.856C338.892 23.872 339.9 26.224 339.9 28.912H334.644C334.116 25.12 331.932 23.224 328.092 23.224C325.884 23.224 324.156 24.016 322.908 25.6C321.708 27.136 321.108 29.392 321.108 32.368C321.108 35.344 321.708 37.624 322.908 39.208C324.156 40.792 325.884 41.584 328.092 41.584C331.98 41.584 334.164 39.592 334.644 35.608H339.9C339.9 38.488 338.868 40.936 336.804 42.952C334.74 44.92 331.836 45.904 328.092 45.904Z" fill="#0E0E0E"/>
</g>
<defs>
<clipPath id="clip0_2155_13">
<rect width="357" height="70" fill="white"/>
</clipPath>
</defs>
</svg>
