<?xml version="1.0" encoding="UTF-8"?>
<svg width="36px" height="26px" viewBox="0 0 36 26" version="1.1" xmlns="http://www.w3.org/2000/svg" xmlns:xlink="http://www.w3.org/1999/xlink">
    <!-- Generator: Sketch 55.1 (78136) - https://sketchapp.com -->
    <title>Group</title>
    <desc>Created with Sketch.</desc>
    <g id="works" stroke="none" stroke-width="1" fill="none" fill-rule="evenodd">
        <g id="home-copy-4" transform="translate(-506.000000, -1385.000000)" fill="#2E5BFF" fill-rule="nonzero">
            <g id="Group" transform="translate(506.000000, 1385.000000)">
                <path d="M32.8040374,21.0229529 L32.8059111,14.4514713 C32.8059111,14.1671528 32.5759807,13.9366967 32.2922481,13.9364288 C32.0082478,13.9364288 31.7783174,14.1668848 31.7783174,14.4512033 L31.7764436,21.0138418 L3.30789372,21.0138418 L3.30789372,2.61969596 C3.30789372,1.74315896 4.01936653,1.03008503 4.89411945,1.03008503 L30.1883442,1.03008503 C31.0639001,1.03008503 31.7764436,1.74315896 31.7764436,2.61969596 L31.7764436,12.0742901 C31.7764436,12.3586086 32.0063741,12.5890647 32.2901067,12.5890647 C32.5738393,12.5890647 32.8040374,12.3586086 32.8040374,12.0742901 L32.8040374,2.61969596 C32.8040374,1.17532591 31.6305623,0 30.1883442,0 L4.89411945,0 C3.45297204,0 2.28029993,1.17532591 2.28029993,2.61969596 L2.28029993,21.0229529 C1.00537698,21.1288019 0,22.2020304 0,23.5067869 C0,24.8814842 1.1159256,26 2.48747822,26 L32.5971268,26 C33.9686794,26 35.0843373,24.8814842 35.0843373,23.5067869 C35.0843373,22.2020304 34.0789604,21.1288019 32.8040374,21.0229529 Z M22.0856375,22.0436588 L22.0856375,22.8264056 L13.4473186,22.8264056 L13.4462478,22.0436588 L22.0856375,22.0436588 Z M32.5968591,24.969915 L2.48747822,24.969915 C1.68258781,24.969915 1.02759379,24.3136511 1.02759379,23.5067869 C1.02759379,22.6999227 1.68258781,22.0436588 2.48747822,22.0436588 L12.4186541,22.0436588 L12.4199925,22.9987117 C12.4199925,23.4716826 12.8038344,23.8562226 13.2757406,23.8562226 L22.2574831,23.8562226 C22.7291215,23.8562226 23.1132312,23.4714146 23.1132312,22.9987117 L23.1132312,22.0436588 L32.5971268,22.0436588 C33.4020173,22.0436588 34.0567436,22.6999227 34.0567436,23.5067869 C34.0567436,24.3136511 33.4020173,24.969915 32.5968591,24.969915 Z" id="Shape"></path>
                <path d="M11.0953216,2.19652662 L5.51406579,2.19277108 C4.89170042,2.19277108 4.38554217,2.70030083 4.38554217,3.32398289 L4.38554217,18.2923528 C4.38554217,18.9152301 4.89170042,19.4216867 5.51406579,19.4216867 L29.5702716,19.4216867 C30.1926369,19.4216867 30.6987952,18.9152301 30.6987952,18.2923528 L30.6987952,3.32398289 C30.6987952,2.70003253 30.1926369,2.19277108 29.5702716,2.19277108 L13.4731384,2.19277108 C13.1886592,2.19277108 12.9578553,2.42346646 12.9578553,2.70808007 C12.9578553,2.99296191 13.1886592,3.22365722 13.4731384,3.22365722 L29.5702716,3.22365722 C29.6236785,3.22365722 29.6687658,3.26952805 29.6687658,3.32398289 L29.6687658,18.2923528 C29.6687658,18.3449299 29.6228734,18.3908006 29.5702716,18.3908006 L5.51406579,18.3908006 C5.46173241,18.3908006 5.41583999,18.3449299 5.41583999,18.2923528 L5.41583999,3.32398289 C5.41583999,3.26952805 5.46092726,3.22365722 5.51406579,3.22365722 L11.0950533,3.22768099 C11.3795325,3.22768099 11.610068,2.99698569 11.6103364,2.71210377 C11.6103364,2.42749016 11.3798008,2.19652662 11.0953216,2.19652662 Z" id="Path"></path>
                <path d="M13.4830022,15.6874296 L22.4971892,6.98407666 C22.6838791,6.80382432 22.6890978,6.50635884 22.5088455,6.31966891 C22.3285932,6.13297899 22.0311277,6.12776029 21.8444377,6.30801264 L12.8302508,15.0113656 C12.6435608,15.1916179 12.6383422,15.4890834 12.8185945,15.6757733 C12.9988468,15.8624633 13.2963123,15.8676819 13.4830022,15.6874296 Z" id="Path-2"></path>
                <path d="M18.1777557,15.0647797 L23.4868667,10.0593209 C23.6756863,9.88130072 23.684441,9.5839183 23.5064208,9.39509867 C23.3284006,9.20627905 23.0310182,9.19752436 22.8421986,9.37554454 L17.5330876,14.3810034 C17.344268,14.5590236 17.3355133,14.856406 17.5135335,15.0452256 C17.6915537,15.2340452 17.9889361,15.2427999 18.1777557,15.0647797 Z" id="Path-2"></path>
                <path d="M13.1657075,11.9322496 L18.4748185,6.92679077 C18.6636381,6.74877059 18.6723928,6.45138818 18.4943726,6.26256855 C18.3163524,6.07374892 18.01897,6.06499424 17.8301504,6.24301442 L12.5210394,11.2484733 C12.3322198,11.4264934 12.3234651,11.7238759 12.5014853,11.9126955 C12.6795055,12.1015151 12.9768879,12.1102698 13.1657075,11.9322496 Z" id="Path-2"></path>
            </g>
        </g>
    </g>
</svg>