<svg width="40" height="40" viewBox="0 0 40 40" fill="none" xmlns="http://www.w3.org/2000/svg">
<path d="M36 20C36 28.8366 28.8366 36 20 36C11.1634 36 4 28.8366 4 20C4 11.1634 11.1634 4 20 4C28.8366 4 36 11.1634 36 20Z" fill="#8E58DF"/>
<path d="M25.1201 22.8799C25.1201 27.2982 21.5384 30.8799 17.1201 30.8799C12.7018 30.8799 9.12012 27.2982 9.12012 22.8799C9.12012 18.4616 12.7018 14.8799 17.1201 14.8799C21.5384 14.8799 25.1201 18.4616 25.1201 22.8799Z" fill="#FFDC99"/>
<path d="M22.5601 21.4404C22.5601 23.6496 20.7692 25.4404 18.5601 25.4404C16.3509 25.4404 14.5601 23.6496 14.5601 21.4404C14.5601 19.2313 16.3509 17.4404 18.5601 17.4404C20.7692 17.4404 22.5601 19.2313 22.5601 21.4404Z" fill="#FF7733"/>
</svg>
