<svg width="40" height="40" viewBox="0 0 40 40" fill="none" xmlns="http://www.w3.org/2000/svg">
<path d="M20 4L34 12V28L20 36L6 28V12L20 4Z" fill="#334EFF"/>
<path d="M17.5885 11L26.5885 13.4115L29 22.4115L22.4115 29L13.4115 26.5885L11 17.5885L17.5885 11Z" fill="#FFCC99"/>
<path d="M18 16.5359C19.2376 15.8214 20.7624 15.8214 22 16.5359C23.2376 17.2504 24 18.5709 24 20C24 21.4291 23.2376 22.7496 22 23.4641C20.7624 24.1786 19.2376 24.1786 18 23.4641C16.7624 22.7496 16 21.4291 16 20C16 18.5709 16.7624 17.2504 18 16.5359Z" fill="#FF0055"/>
</svg>
