<svg width="40" height="40" viewBox="0 0 40 40" fill="none" xmlns="http://www.w3.org/2000/svg">
<path d="M36 20C36 28.8366 28.8366 36 20 36C11.1634 36 4 28.8366 4 20C4 11.1634 11.1634 4 20 4C28.8366 4 36 11.1634 36 20Z" fill="#8E58DF"/>
<path d="M25 30.5C25 31.8807 23.8807 33 22.5 33C21.1193 33 20 31.8807 20 30.5C20 29.1193 21.1193 28 22.5 28C23.8807 28 25 29.1193 25 30.5Z" fill="#FF9933"/>
<path d="M24 13.5C24 17.0899 21.0899 20 17.5 20C13.9101 20 11 17.0899 11 13.5C11 9.91015 13.9101 7 17.5 7C21.0899 7 24 9.91015 24 13.5Z" fill="#FF9933"/>
<path d="M32 22.5C32 24.9853 29.9853 27 27.5 27C25.0147 27 23 24.9853 23 22.5C23 20.0147 25.0147 18 27.5 18C29.9853 18 32 20.0147 32 22.5Z" fill="#FF9933"/>
</svg>
