<?xml version="1.0" encoding="UTF-8"?>
<svg width="71px" height="72px" viewBox="0 0 71 72" version="1.1" xmlns="http://www.w3.org/2000/svg" xmlns:xlink="http://www.w3.org/1999/xlink">
    <!-- Generator: Sketch 55.2 (78181) - https://sketchapp.com -->
    <title>logo-blue-new</title>
    <desc>Created with Sketch.</desc>
    <g id="Page-1" stroke="none" stroke-width="1" fill="none" fill-rule="evenodd">
        <g id="logo-blue-new" transform="translate(0.000000, -1.000000)">
            <polyline id="Stroke-1" stroke="#2E5BFF" stroke-width="1.136" stroke-linecap="round" stroke-linejoin="round" points="33.5225 16.2092 22.8415 14.8512 6.4575 29.3742 2.7325 44.6422 13.6575 39.5742 28.0925 44.6432 33.5225 52.3472"></polyline>
            <polygon id="Stroke-2" stroke="#2E5BFF" stroke-width="1.136" stroke-linecap="round" stroke-linejoin="round" points="38.4668 64.0842 33.5228 68.9592 28.5788 64.0842 27.5518 66.5222 26.8278 68.2422 30.3398 72.0542 32.1928 72.0542 33.5228 72.0542 36.7048 72.0542 40.2178 68.2422"></polygon>
            <polygon id="Stroke-4" stroke="#2E5BFF" stroke-width="1.136" stroke-linecap="round" stroke-linejoin="round" points="33.5225 64.0842 28.5795 64.0842 33.5225 68.9592 38.4665 64.0842"></polygon>
            <g id="Group-13" stroke-linecap="round" stroke-linejoin="round" transform="translate(0.000000, 0.622000)" stroke="#2E5BFF" stroke-width="1.136">
                <polygon id="Stroke-5" points="0.5684 2.0818 22.8414 14.2288 6.4574 28.7518"></polygon>
                <polyline id="Stroke-7" points="8.2979 20.5027 9.0819 16.9867 0.5689 2.0817"></polyline>
                <polygon id="Stroke-9" points="69.791 0.9461 47.517 13.0931 63.902 27.6161"></polygon>
                <polyline id="Stroke-11" points="62.0605 19.367 61.2765 15.851 69.7905 0.946 63.9025 27.617"></polyline>
            </g>
            <polygon id="Fill-14" fill="#2E5BFF" fill-rule="nonzero" points="19.5156 45.4387 28.0926 44.6437 13.6576 39.5747"></polygon>
            <polygon id="Stroke-15" stroke="#2E5BFF" stroke-width="1.136" stroke-linecap="round" stroke-linejoin="round" points="19.5156 45.4387 28.0926 44.6437 13.6576 39.5747"></polygon>
            <polyline id="Stroke-16" stroke="#2E5BFF" stroke-width="1.136" stroke-linecap="round" stroke-linejoin="round" points="33.5088 16.2092 44.1898 14.8512 60.5738 29.3742 64.2988 44.6422 53.3738 39.5742 38.9388 44.6432 33.5088 52.3472"></polyline>
            <polygon id="Stroke-17" stroke="#2E5BFF" stroke-width="1.136" fill="#2E5BFF" stroke-linecap="round" stroke-linejoin="round" points="47.5156 45.4387 38.9386 44.6437 53.3736 39.5747"></polygon>
            <path d="M49.626,53.5217 L47.516,45.4387" id="Stroke-18" stroke="#2E5BFF" stroke-width="1.136" stroke-linecap="round" stroke-linejoin="round"></path>
            <polyline id="Stroke-19" stroke="#2E5BFF" stroke-width="1.136" stroke-linecap="round" stroke-linejoin="round" points="38.4668 64.0842 33.5088 52.3472 28.5788 64.0842"></polyline>
            <path d="M33.5088,24.3147 L33.5088,16.2097" id="Stroke-20" stroke="#2E5BFF" stroke-width="1.136" stroke-linecap="round" stroke-linejoin="round"></path>
            <path d="M33.5088,30.1247 L33.5088,27.3747" id="Stroke-21" stroke="#2E5BFF" stroke-width="1.136" stroke-linecap="round" stroke-linejoin="round"></path>
            <polygon id="Stroke-22" stroke="#2E5BFF" stroke-width="1.136" stroke-linecap="round" stroke-linejoin="round" points="64.2988 44.6418 49.6258 53.5218 40.2178 68.2418"></polygon>
            <path d="M17.4063,53.5217 L19.5153,45.4387" id="Stroke-23" stroke="#2E5BFF" stroke-width="1.136" stroke-linecap="round" stroke-linejoin="round"></path>
            <polygon id="Stroke-24" stroke="#2E5BFF" stroke-width="1.136" stroke-linecap="round" stroke-linejoin="round" points="2.7324 44.6418 17.4064 53.5218 26.8134 68.2418"></polygon>
        </g>
    </g>
</svg>