<svg width="860" height="1130" viewBox="0 0 860 1130" fill="none" xmlns="http://www.w3.org/2000/svg">
<g opacity="0.3">
<path d="M185.109 530.145C184.758 529.693 184.369 529.442 183.929 529.442C183.565 529.442 183.239 529.605 183.025 529.743C179.699 532.354 175.142 543.439 171.414 558.026L174.715 558.063C181.243 558.139 187.984 558.214 194.65 558.314C192.892 551.623 191.235 545.899 189.716 541.267C187.482 534.526 185.975 531.5 185.109 530.145Z" fill="#1E61F0"/>
<path fill-rule="evenodd" clip-rule="evenodd" d="M255.031 564.516C255.031 599.037 227.037 627.031 192.516 627.031C157.994 627.031 130 599.037 130 564.516C130 529.994 157.994 502 192.516 502C227.037 502 255.031 529.994 255.031 564.516ZM238.687 563.085C238.687 561.478 237.557 560.147 236.026 559.833C236.013 559.833 236.013 559.833 236.001 559.821C235.988 559.821 235.963 559.808 235.95 559.808H235.888C235.724 559.783 235.561 559.771 235.398 559.758L234.959 559.72C224.489 558.967 213.718 558.678 203.613 558.478L203.588 558.402C198.667 539.949 192.528 521.094 184.243 521.094C176.523 521.131 169.568 533.521 163.555 557.938C159.312 557.888 155.446 557.825 151.793 557.762C151.579 557.762 151.403 557.762 151.228 557.762C150.449 557.762 150.073 557.8 149.885 557.825C147.826 558.189 146.344 559.984 146.344 562.093C146.344 564.24 147.951 566.085 150.035 566.386L150.073 566.424H161.597C160.53 571.307 159.588 576.14 158.81 580.797L158.471 582.844V582.944C158.484 584.526 159.777 585.806 161.346 585.806C162.35 585.806 163.254 585.279 163.769 584.476L163.856 584.538L169.518 566.424H196.771C198.855 574.295 201.014 582.417 203.864 590.037C205.395 594.117 208.961 603.67 214.936 603.707H214.999C224.238 603.707 227.841 588.769 230.239 578.889C230.753 576.768 231.193 574.922 231.607 573.579L231.77 573.027C231.808 572.901 231.833 572.763 231.833 572.613C231.833 571.822 231.193 571.182 230.402 571.182C229.787 571.182 229.272 571.571 229.059 572.11L228.858 572.663C228.079 574.835 227.351 576.893 226.698 578.714L226.648 578.852C222.644 590.187 220.824 595.359 217.246 595.359H217.158L217.108 595.372H217.02C212.438 595.372 208.132 576.755 206.5 569.75C206.224 568.533 205.96 567.416 205.722 566.436H235.335C235.888 566.436 236.415 566.298 236.879 566.06H236.892C236.942 566.035 236.98 566.01 237.03 565.984C237.08 565.959 237.13 565.922 237.181 565.897C237.206 565.884 237.231 565.871 237.243 565.846C237.319 565.796 237.381 565.746 237.457 565.696L237.469 565.683C238.222 565.043 238.687 564.114 238.687 563.085ZM289.729 580.157L284.77 592.409H270.372L297.763 528.462H310.48L337.783 592.409H323.472L318.514 580.157H289.729ZM304.027 544.631L294.675 567.918H313.568L304.027 544.631ZM418.94 567.817V592.409H405.948V568.947C405.948 561.842 402.483 558.013 396.407 558.013C393.696 558.013 390.708 559.231 387.996 562.972C388.185 564.566 388.373 566.148 388.373 567.83V592.422H375.38V568.96C375.38 561.854 371.916 558.026 365.752 558.026C363.229 558.026 360.429 559.519 357.806 563.072V592.434H344.813V547.644H357.806V550.356C360.605 547.732 363.605 546.238 368.84 546.238C374.539 546.238 379.586 548.485 383.138 552.59C387.909 548.196 392.39 546.238 399.407 546.238C410.329 546.225 418.94 554.737 418.94 567.817ZM476.058 570.064C476.058 583.057 466.154 593.338 453.801 593.338C448.755 593.338 444.549 592.033 441.085 589.786V614.001H428.104V547.619H441.097V550.23C444.562 547.983 448.767 546.677 453.814 546.677C466.154 546.69 476.058 556.883 476.058 570.064ZM463.254 570.064C463.254 563.424 458.396 557.624 451.655 557.624C447.826 557.624 443.984 558.929 441.085 562.859V577.169C443.984 580.998 447.813 582.316 451.655 582.316C458.396 582.316 463.254 576.605 463.254 570.064ZM496.344 592.409H483.352V526.027H496.344V592.409ZM522.43 592.409H509.438V547.619H522.43V592.409ZM508.032 531.827C508.032 527.433 511.496 524.157 515.89 524.157C520.196 524.157 523.648 527.433 523.648 531.827C523.648 536.133 520.183 539.309 515.89 539.309C511.496 539.309 508.032 536.12 508.032 531.827ZM569.643 591.756C564.22 593.439 561.785 593.815 557.58 593.815C546.734 593.815 539.628 586.145 539.628 574.558V558.565H530.188V547.631H539.628V531.638H552.533V547.631H568.715V558.565H552.533V574.458C552.533 579.504 555.621 581.839 560.392 581.839C562.827 581.839 565.438 581.274 567.961 580.622L569.643 591.756ZM621.815 592.409H608.823V589.233C605.182 592.133 601.065 593.815 596.018 593.815C584.23 593.815 576.385 585.304 576.385 572.311V547.631H589.377V571.094C589.377 578.199 592.93 582.028 599.006 582.028C602.282 582.028 605.835 580.069 608.823 576.416V547.619H621.815V592.409ZM676.975 592.409H663.982V589.786C660.517 592.033 656.312 593.338 651.265 593.338C638.926 593.338 628.92 583.145 628.92 569.964C628.92 556.971 638.926 546.677 651.265 546.677C656.312 546.677 660.517 547.983 663.982 550.23V526.015H676.975V592.409ZM663.982 577.169V562.859C661.082 559.03 657.253 557.712 653.412 557.712C646.583 557.712 641.813 563.411 641.813 569.964C641.813 576.605 646.583 582.404 653.412 582.404C657.253 582.404 661.082 581.099 663.982 577.169ZM729.711 573.341H696.709C697.738 578.575 701.203 582.693 708.308 582.693C711.948 582.693 714.484 581.576 715.878 579.329H729.435C727 587.928 718.589 593.815 708.032 593.815C693.633 593.815 683.904 583.434 683.904 570.064C683.904 556.23 693.533 546.225 707.655 546.225C720.459 546.225 730 555.289 730 569.135C729.987 570.993 729.9 572.023 729.711 573.341ZM696.796 565.671H717.083C716.329 560.059 712.965 556.971 707.73 556.971C701.479 556.971 698.014 560.624 696.796 565.671Z" fill="#1E61F0"/>
</g>
</svg>
