<svg width="860" height="1130" viewBox="0 0 860 1130" fill="none" xmlns="http://www.w3.org/2000/svg">
<g opacity="0.3">
<mask id="mask0_2_9" style="mask-type:luminance" maskUnits="userSpaceOnUse" x="295" y="796" width="270" height="267">
<path d="M564.367 796.551H295.774V1062.75H564.367V796.551Z" fill="white"/>
</mask>
<g mask="url(#mask0_2_9)">
<path d="M398.791 893.446V868.157C398.791 866.027 399.591 864.429 401.453 863.366L452.298 834.084C459.219 830.092 467.471 828.229 475.988 828.229C507.931 828.229 528.164 852.986 528.164 879.338C528.164 881.201 528.164 883.331 527.897 885.461L475.189 854.581C471.996 852.719 468.8 852.719 465.606 854.581L398.791 893.446ZM517.515 991.939V931.511C517.515 927.784 515.916 925.122 512.723 923.259L445.908 884.394L467.736 871.882C469.599 870.819 471.197 870.819 473.06 871.882L523.904 901.164C538.546 909.683 548.394 927.784 548.394 945.351C548.394 965.582 536.416 984.216 517.515 991.937V991.939ZM383.086 938.7L361.258 925.923C359.395 924.86 358.596 923.262 358.596 921.132V862.569C358.596 834.087 380.424 812.524 409.972 812.524C421.154 812.524 431.533 816.251 440.32 822.906L387.88 853.253C384.686 855.116 383.089 857.778 383.089 861.506V938.702L383.086 938.7ZM430.07 965.851L398.791 948.283V911.017L430.07 893.449L461.346 911.017V948.283L430.07 965.851ZM450.168 1046.78C438.986 1046.78 428.607 1043.05 419.82 1036.39L472.26 1006.05C475.454 1004.18 477.052 1001.52 477.052 997.794V920.598L499.147 933.374C501.01 934.438 501.809 936.035 501.809 938.166V996.728C501.809 1025.21 479.714 1046.77 450.168 1046.77V1046.78ZM387.079 987.415L336.234 958.134C321.592 949.614 311.744 931.514 311.744 913.946C311.744 893.449 323.989 875.081 342.888 867.361V928.053C342.888 931.781 344.486 934.443 347.679 936.306L414.23 974.903L392.402 987.415C390.539 988.478 388.941 988.478 387.079 987.415ZM384.152 1031.07C354.072 1031.07 331.977 1008.44 331.977 980.493C331.977 978.363 332.244 976.234 332.508 974.104L384.949 1004.45C388.142 1006.31 391.338 1006.31 394.532 1004.45L461.346 965.854V991.143C461.346 993.273 460.548 994.87 458.685 995.934L407.84 1025.22C400.919 1029.21 392.666 1031.07 384.149 1031.07H384.152ZM450.168 1062.75C482.378 1062.75 509.262 1039.85 515.387 1009.51C545.201 1001.79 564.367 973.836 564.367 945.354C564.367 926.72 556.382 908.62 542.007 895.576C543.338 889.985 544.137 884.394 544.137 878.807C544.137 840.741 513.257 812.256 477.586 812.256C470.401 812.256 463.479 813.32 456.558 815.717C444.577 804.004 428.073 796.551 409.972 796.551C377.763 796.551 350.878 819.442 344.753 849.79C314.94 857.51 295.774 885.461 295.774 913.943C295.774 932.578 303.759 950.677 318.134 963.721C316.803 969.312 316.004 974.903 316.004 980.491C316.004 1018.56 346.883 1047.04 382.554 1047.04C389.74 1047.04 396.661 1045.98 403.583 1043.58C415.561 1055.29 432.065 1062.75 450.168 1062.75Z" fill="black"/>
</g>
</g>
</svg>
