<svg width="860" height="1130" viewBox="0 0 860 1130" fill="none" xmlns="http://www.w3.org/2000/svg">
<g opacity="0.3" clip-path="url(#clip0_1_2)">
<path d="M719.759 1130C745.56 1130 766.5 1109.09 766.5 1083.33V1036.67H719.759C693.958 1036.67 673.019 1057.57 673.019 1083.33C673.019 1109.09 693.958 1130 719.759 1130Z" fill="#0ACF83"/>
<path d="M673.019 990C673.019 964.24 693.958 943.333 719.759 943.333H766.5V1036.67H719.759C693.958 1036.67 673.019 1015.76 673.019 990Z" fill="#A259FF"/>
<path d="M673.019 896.667C673.019 870.907 693.958 850 719.759 850H766.5V943.333H719.759C693.958 943.333 673.019 922.427 673.019 896.667Z" fill="#F24E1E"/>
<path d="M766.5 850H813.241C839.041 850 859.981 870.907 859.981 896.667C859.981 922.427 839.041 943.333 813.241 943.333H766.5V850Z" fill="#FF7262"/>
<path d="M859.981 990C859.981 1015.76 839.041 1036.67 813.241 1036.67C787.44 1036.67 766.5 1015.76 766.5 990C766.5 964.24 787.44 943.333 813.241 943.333C839.041 943.333 859.981 964.24 859.981 990Z" fill="#1ABCFE"/>
</g>
<defs>
<clipPath id="clip0_1_2">
<rect width="187" height="280" fill="white" transform="translate(673 850)"/>
</clipPath>
</defs>
</svg>
