<svg width="860" height="1130" viewBox="0 0 860 1130" fill="none" xmlns="http://www.w3.org/2000/svg">
<g opacity="0.3">
<mask id="mask0_3_26" style="mask-type:luminance" maskUnits="userSpaceOnUse" x="130" y="368" width="600" height="155">
<path d="M730 368H130V522.896H730V368Z" fill="white"/>
</mask>
<g mask="url(#mask0_3_26)">
<path d="M286.933 485.272V368H305.202V414.205C310.925 405.624 319.509 401.444 330.954 401.444C340.638 401.444 348.342 404.304 353.624 410.024C358.907 415.745 361.548 423.886 361.548 434.227V485.272H343.28V436.867C343.28 423.446 337.337 416.845 325.451 416.845C319.509 416.845 314.666 418.605 310.704 422.346C306.963 425.866 304.982 430.927 304.982 437.527V485.492L286.933 485.272Z" fill="#323232"/>
<path d="M447.828 475.151C439.684 483.292 429.56 487.253 417.234 487.253C404.908 487.253 394.783 483.292 386.64 475.151C378.496 467.011 374.314 456.669 374.314 444.348C374.314 431.807 378.496 421.686 386.64 413.545C394.783 405.404 404.908 401.444 417.234 401.444C429.56 401.444 439.684 405.404 447.828 413.545C455.972 421.686 459.934 431.807 459.934 444.348C459.934 456.889 455.972 467.231 447.828 475.151ZM400.066 465.03C404.468 470.091 410.191 472.731 417.454 472.731C424.717 472.731 430.44 470.091 434.842 465.03C439.244 459.97 441.445 453.149 441.445 444.348C441.445 435.767 439.244 428.946 434.842 423.886C430.44 418.825 424.717 416.185 417.674 416.185C410.411 416.185 404.688 418.605 400.286 423.666C395.884 428.726 393.683 435.547 393.683 444.128C393.463 452.929 395.664 459.97 400.066 465.03Z" fill="#323232"/>
<path d="M502.194 487.473C485.466 487.473 477.102 478.452 477.102 460.41V418.825H464.336V403.424H477.542L481.724 379.221H495.37V403.424H527.946V418.825H495.37V459.75C495.37 467.231 498.232 470.971 503.734 470.971C509.017 470.971 513.639 466.35 517.821 456.889L531.907 464.15C524.864 479.772 514.96 487.473 502.194 487.473Z" fill="#323232"/>
<path d="M537.63 522.896C529.486 522.896 522.883 520.696 517.601 516.076L524.424 501.774C527.726 505.515 531.247 507.495 534.989 507.495C540.051 507.495 542.693 504.194 542.693 497.814V403.424H560.961V497.814C560.961 506.615 558.76 512.995 554.358 516.736C549.956 520.916 544.453 522.896 537.63 522.896ZM551.717 389.562C548.635 389.562 545.774 388.462 543.573 386.482C542.472 385.382 541.592 384.282 541.152 382.962C540.492 381.641 540.271 380.101 540.492 378.781C540.492 377.241 540.712 375.921 541.372 374.601C542.032 373.281 542.693 371.96 543.793 371.08C545.994 369.1 548.855 368 551.937 368C555.018 368 557.88 369.1 560.081 371.08C561.181 372.18 562.062 373.281 562.502 374.601C563.162 375.921 563.382 377.461 563.382 378.781C563.382 380.321 563.162 381.641 562.502 382.962C561.841 384.282 561.181 385.382 560.081 386.482C558.98 387.582 557.66 388.242 556.339 388.902C554.798 389.342 553.257 389.782 551.717 389.562Z" fill="#323232"/>
<path d="M606.082 487.473C596.838 487.473 589.134 485.052 583.412 480.432C577.689 475.811 574.828 469.431 574.828 461.73C574.828 454.469 577.909 448.529 583.852 443.468C589.795 438.408 597.498 435.987 606.522 435.987C615.767 435.987 623.69 439.068 630.073 445.008V435.107C630.073 429.167 628.533 424.766 625.671 421.466C622.59 418.165 618.408 416.625 612.905 416.625C601.68 416.625 594.857 422.346 592.216 433.567L575.488 430.047C577.689 421.246 582.091 414.425 588.914 409.364C595.517 404.304 603.881 401.664 613.786 401.664C624.571 401.664 633.155 404.524 639.318 410.245C645.481 415.965 648.782 424.326 648.782 435.107V485.493H630.954V475.151C624.791 483.292 616.647 487.473 606.082 487.473ZM609.604 473.831C617.748 473.831 624.571 469.871 630.294 461.73V459.09C624.571 452.269 617.748 448.969 609.604 448.969C604.982 448.969 601.02 450.069 598.159 452.489C596.838 453.589 595.737 454.909 594.857 456.449C594.197 457.99 593.756 459.75 593.756 461.51C593.756 463.27 593.977 465.03 594.857 466.57C595.517 468.111 596.618 469.431 598.159 470.531C600.8 472.731 604.762 473.831 609.604 473.831Z" fill="#323232"/>
<path d="M666.17 485.272V403.424H683.998V417.505C688.4 407.164 696.324 401.884 707.329 401.884C713.932 401.884 719.215 404.084 723.617 408.264C728.019 412.445 730 418.385 730 425.426C730 429.827 729.12 434.007 727.799 438.187L711.071 436.427C711.511 434.227 711.731 432.027 711.731 429.607C711.731 421.246 708.21 416.845 701.166 416.845C696.544 416.845 692.362 419.265 689.281 424.326C685.979 429.386 684.439 435.987 684.439 444.128V484.832H666.17V485.272Z" fill="#323232"/>
<path d="M173.14 415.965C186.786 408.484 205.275 398.143 205.275 368H182.604C182.604 384.722 174.461 389.342 161.915 396.163C148.268 403.644 129.78 413.985 129.78 444.128H152.23C152.45 427.406 160.594 423.006 173.14 415.965Z" fill="#FF3C00"/>
<path d="M212.098 409.144C212.098 425.866 203.955 430.487 191.409 437.307C177.762 444.788 159.274 455.129 159.274 485.272H181.724C181.724 468.551 189.868 463.93 202.414 457.109C216.06 449.629 234.549 439.288 234.549 409.144H212.098Z" fill="#FF3C00"/>
</g>
</g>
</svg>
