<svg width="860" height="1130" viewBox="0 0 860 1130" fill="none" xmlns="http://www.w3.org/2000/svg">
<g opacity="0.3" clip-path="url(#clip0_3_52)">
<mask id="mask0_3_52" style="mask-type:luminance" maskUnits="userSpaceOnUse" x="130" y="320" width="600" height="110">
<path d="M730 320H130V430H730V320Z" fill="white"/>
</mask>
<g mask="url(#mask0_3_52)">
<path fill-rule="evenodd" clip-rule="evenodd" d="M140.299 416.681C126.567 403.04 126.567 380.923 140.299 367.281L177.596 330.231C189.204 318.699 206.91 316.916 220.404 324.881C224.578 327.344 224.541 332.996 221.108 336.406C217.675 339.817 212.071 339.523 207.412 338.169C201.444 336.435 194.734 337.906 190.028 342.581L152.731 379.632C145.865 386.452 145.865 397.511 152.731 404.332C159.597 411.152 170.729 411.152 177.595 404.332L252.188 330.232C265.92 316.59 288.184 316.59 301.916 330.231L339.213 367.281C352.946 380.923 352.946 403.04 339.213 416.681C325.481 430.323 303.217 430.323 289.485 416.681L277.053 404.331L261.512 419.769C249.904 431.301 232.199 433.084 218.705 425.119C214.53 422.656 214.567 417.004 218 413.594C221.433 410.184 227.037 410.477 231.697 411.831C237.664 413.565 244.374 412.094 249.08 407.419L265.065 391.54C271.685 384.963 282.42 384.963 289.041 391.54L301.917 404.332C308.783 411.152 319.915 411.152 326.782 404.332C333.647 397.511 333.647 386.452 326.782 379.632L289.484 342.582C282.618 335.761 271.486 335.761 264.62 342.582L190.028 416.682C176.295 430.323 154.031 430.323 140.299 416.681Z" fill="#0568FD"/>
<path d="M489.96 339.8C481.318 339.8 474.773 342.9 470.452 349.1C466.657 342.9 460.633 339.8 452.648 339.8C444.4 339.8 438.378 342.641 434.451 348.454V341.608H417.561V406.191H434.451V369.896C434.451 360.466 439.295 355.3 446.756 355.3C453.695 355.3 457.754 359.821 457.754 367.57V406.191H474.641V369.896C474.641 360.466 479.094 355.3 486.817 355.3C493.755 355.3 497.815 359.821 497.815 367.57V406.191H514.702V366.408C514.702 350.262 505.015 339.8 489.96 339.8Z" fill="#0568FD"/>
<path d="M577.487 349.229C572.381 342.9 565.311 339.8 556.146 339.8C547.375 339.8 539.913 343.158 533.63 349.746C527.476 356.333 524.333 364.341 524.333 373.9C524.333 383.458 527.476 391.596 533.63 398.183C539.913 404.77 547.375 408 556.146 408C565.311 408 572.381 404.9 577.487 398.57V406.191H594.374V341.608H577.487V349.229ZM546.329 387.075C542.924 383.587 541.223 379.195 541.223 373.9C541.223 368.604 542.924 364.212 546.329 360.854C549.731 357.366 554.052 355.687 559.289 355.687C564.526 355.687 568.847 357.366 572.249 360.854C575.785 364.212 577.487 368.604 577.487 373.9C577.487 379.195 575.785 383.587 572.249 387.075C568.847 390.433 564.526 392.112 559.289 392.112C554.052 392.112 549.731 390.433 546.329 387.075Z" fill="#0568FD"/>
<path d="M656.69 352.717V341.608H607.594V357.237H633.91L606.287 395.083V406.191H657.998V390.562H628.935L656.69 352.717Z" fill="#0568FD"/>
<path d="M728.613 380.746C729.007 378.291 729.268 376.095 729.268 373.9C729.268 364.212 726.127 356.204 719.842 349.616C713.69 343.029 705.704 339.8 696.146 339.8C686.065 339.8 677.687 343.029 671.271 349.616C664.856 356.075 661.584 364.212 661.584 373.9C661.584 383.716 664.856 391.854 671.403 398.312C677.948 404.77 686.59 408 697.456 408C710.024 408 719.581 403.35 725.996 394.179L712.381 386.429C709.108 390.691 704.132 392.887 697.717 392.887C687.636 392.887 681.484 388.883 679.258 380.746H728.613ZM678.996 367.829C680.959 359.562 687.113 354.783 696.146 354.783C703.871 354.783 710.416 359.045 712.381 367.829H678.996Z" fill="#0568FD"/>
</g>
</g>
<defs>
<clipPath id="clip0_3_52">
<rect width="600" height="110" fill="white" transform="translate(130 320)"/>
</clipPath>
</defs>
</svg>
