<svg width="860" height="1130" viewBox="0 0 860 1130" fill="none" xmlns="http://www.w3.org/2000/svg">
<g opacity="0.3">
<path d="M422.55 485.585L381.932 480.421L319.627 535.65L305.461 593.711L347.007 574.438L401.901 593.715L422.55 623.012" stroke="#2E5BFF" stroke-width="6" stroke-linecap="round" stroke-linejoin="round"/>
<path fill-rule="evenodd" clip-rule="evenodd" d="M441.352 667.645L422.551 686.184L403.75 667.645L399.845 676.916L397.091 683.457L410.447 697.954H417.494H422.551H434.652L448.011 683.457L441.352 667.645Z" stroke="#2E5BFF" stroke-width="6" stroke-linecap="round" stroke-linejoin="round"/>
<path fill-rule="evenodd" clip-rule="evenodd" d="M422.55 667.645H403.753L422.55 686.184L441.351 667.645H422.55Z" stroke="#2E5BFF" stroke-width="6" stroke-linecap="round" stroke-linejoin="round"/>
<path fill-rule="evenodd" clip-rule="evenodd" d="M297.232 434.227L381.932 480.42L319.626 535.648L297.232 434.227Z" stroke="#2E5BFF" stroke-width="6" stroke-linecap="round" stroke-linejoin="round"/>
<path d="M326.625 504.279L329.607 490.908L297.234 434.227" stroke="#2E5BFF" stroke-width="6" stroke-linecap="round" stroke-linejoin="round"/>
<path fill-rule="evenodd" clip-rule="evenodd" d="M560.473 429.908L475.769 476.101L538.078 531.329L560.473 429.908Z" stroke="#2E5BFF" stroke-width="6" stroke-linecap="round" stroke-linejoin="round"/>
<path d="M531.075 499.96L528.094 486.589L560.471 429.908L538.08 531.333" stroke="#2E5BFF" stroke-width="6" stroke-linecap="round" stroke-linejoin="round"/>
<path d="M369.285 596.74L401.901 593.716L347.008 574.44L369.285 596.74Z" fill="#2E5BFF"/>
<path fill-rule="evenodd" clip-rule="evenodd" d="M369.285 596.74L401.901 593.716L347.008 574.44L369.285 596.74Z" stroke="#2E5BFF" stroke-width="6" stroke-linecap="round" stroke-linejoin="round"/>
<path d="M422.498 485.585L463.116 480.421L525.421 535.65L539.587 593.711L498.041 574.438L443.147 593.715L422.498 623.012" stroke="#2E5BFF" stroke-width="6" stroke-linecap="round" stroke-linejoin="round"/>
<path fill-rule="evenodd" clip-rule="evenodd" d="M475.763 596.74L443.147 593.716L498.04 574.44L475.763 596.74Z" stroke="#2E5BFF" stroke-width="6" stroke-linecap="round" stroke-linejoin="round"/>
<path d="M483.789 627.478L475.765 596.74" stroke="#2E5BFF" stroke-width="6" stroke-linecap="round" stroke-linejoin="round"/>
<path d="M441.352 667.646L422.498 623.012L403.75 667.646" stroke="#2E5BFF" stroke-width="6" stroke-linecap="round" stroke-linejoin="round"/>
<path d="M422.498 516.409V485.587" stroke="#2E5BFF" stroke-width="6" stroke-linecap="round" stroke-linejoin="round"/>
<path d="M422.498 538.503V528.046" stroke="#2E5BFF" stroke-width="6" stroke-linecap="round" stroke-linejoin="round"/>
<path fill-rule="evenodd" clip-rule="evenodd" d="M539.587 593.709L483.788 627.478L448.011 683.456L539.587 593.709Z" stroke="#2E5BFF" stroke-width="6" stroke-linecap="round" stroke-linejoin="round"/>
<path d="M361.263 627.478L369.283 596.74" stroke="#2E5BFF" stroke-width="6" stroke-linecap="round" stroke-linejoin="round"/>
<path fill-rule="evenodd" clip-rule="evenodd" d="M305.461 593.709L361.263 627.478L397.036 683.456L305.461 593.709Z" stroke="#2E5BFF" stroke-width="6" stroke-linecap="round" stroke-linejoin="round"/>
</g>
</svg>
